<svg width="207" height="206" xmlns="http://www.w3.org/2000/svg" xmlns:xlink="http://www.w3.org/1999/xlink" xml:space="preserve" overflow="hidden"><defs><filter id="fx0" x="-10%" y="-10%" width="120%" height="120%" filterUnits="userSpaceOnUse" primitiveUnits="userSpaceOnUse"><feComponentTransfer color-interpolation-filters="sRGB"><feFuncR type="discrete" tableValues="0.847059 0.847059"/><feFuncG type="discrete" tableValues="0.431373 0.431373"/><feFuncB type="discrete" tableValues="0.800000 0.800000"/><feFuncA type="linear" slope="1.000000" intercept="0.000000"/></feComponentTransfer><feGaussianBlur stdDeviation="0.632230 0.632230"/></filter><clipPath id="clip1"><rect x="1.21753" y="1.35062" width="60.3853" height="71.1913"/></clipPath></defs><g transform="translate(-3423 -421)"><g><path d="M3427.5 523C3427.5 469.152 3471.15 425.5 3525 425.5 3578.85 425.5 3622.5 469.152 3622.5 523 3622.5 576.848 3578.85 620.5 3525 620.5 3471.15 620.5 3427.5 576.848 3427.5 523Z" stroke="#E97132" stroke-width="6.875" stroke-linecap="butt" stroke-linejoin="miter" stroke-miterlimit="8" stroke-opacity="1" fill="#FFFFFF" fill-rule="evenodd" fill-opacity="1"/><g clip-path="url(#clip1)" filter="url(#fx0)" transform="translate(3497 484)"><g><g><path d="M30.4976 13.0149C29.1196 19.04 27.7957 24.295 26.5259 28.78L23.0405 41.9109 38.8057 41.9109 35.0366 28.8611C34.5503 27.0239 33.2804 21.7418 31.227 13.0149ZM24.5806 4.74732 38.1167 4.74732 57.9751 69.1453 46.2627 69.1453 40.7915 50.219 21.0142 50.219 15.4619 69.1453 4.84375 69.1453Z" stroke="#FFFFFF" stroke-width="3" stroke-linecap="butt" stroke-linejoin="round" stroke-miterlimit="10" stroke-opacity="1" fill="#A02B93" fill-rule="evenodd" fill-opacity="1"/></g></g></g><path d="M3523.84 493.355C3522.46 499.38 3521.14 504.635 3519.87 509.12L3516.38 522.251 3532.15 522.251 3528.38 509.201C3527.89 507.364 3526.62 502.082 3524.57 493.355ZM3517.92 485.087 3531.46 485.087 3551.31 549.485 3539.6 549.485 3534.13 530.559 3514.35 530.559 3508.8 549.485 3498.18 549.485Z" stroke="#FFFFFF" stroke-width="3" stroke-linecap="butt" stroke-linejoin="round" stroke-miterlimit="10" stroke-opacity="1" fill="#A02B93" fill-rule="evenodd" fill-opacity="1"/><text fill="#000000" fill-opacity="0" font-family="Arial,Arial_MSFontService,sans-serif" font-size="64.3979" direction="ltr" writing-mode="lr-tb" x="3498.18" y="541.435">A</text></g></g></svg>