<svg width="215" height="105" xmlns="http://www.w3.org/2000/svg" xmlns:xlink="http://www.w3.org/1999/xlink" xml:space="preserve" overflow="hidden"><g transform="translate(-614 -467)"><g><rect x="620.5" y="473.5" width="204" height="95.0002" stroke="#4EA72E" stroke-width="6.875" stroke-linecap="butt" stroke-linejoin="miter" stroke-miterlimit="8" stroke-opacity="1" fill="#FFFFFF" fill-opacity="1"/><path d="M701.731 535.965C700.603 536.248 699.731 536.729 699.117 537.41 698.502 538.09 698.195 538.879 698.195 539.775 698.195 540.772 698.718 541.647 699.764 542.403 700.81 543.158 702.545 543.536 704.969 543.536 707.791 543.536 709.779 543.137 710.933 542.34 712.087 541.544 712.664 540.556 712.664 539.377 712.664 538.68 712.469 538.078 712.078 537.572 711.688 537.065 710.966 536.671 709.912 536.389 708.858 536.107 707.359 535.965 705.417 535.965ZM776.683 515.67C774.657 515.67 773.068 516.263 771.914 517.451 770.76 518.638 770.092 520.368 769.909 522.643L783.157 522.643C783.107 520.385 782.518 518.658 781.389 517.463 780.26 516.268 778.691 515.67 776.683 515.67ZM704.894 515.521C703.317 515.521 702.01 515.985 700.972 516.915 699.934 517.845 699.416 519.214 699.416 521.024 699.416 522.85 699.951 524.216 701.022 525.12 702.093 526.025 703.333 526.478 704.745 526.478 706.338 526.478 707.654 526.021 708.692 525.108 709.729 524.195 710.248 522.842 710.248 521.049 710.248 519.173 709.758 517.783 708.779 516.878 707.799 515.973 706.504 515.521 704.894 515.521ZM721.013 512.906 725.196 512.906 725.196 528.171C725.196 529.267 725.321 530.246 725.57 531.109 725.819 531.973 726.292 532.645 726.989 533.127 727.687 533.608 728.691 533.849 730.003 533.849 731.829 533.849 733.356 533.471 734.585 532.716 735.813 531.96 736.801 531.085 737.548 530.088L737.548 512.906 741.732 512.906 741.732 537.161 737.722 537.161 737.598 533.425C736.818 534.388 735.718 535.314 734.298 536.202 732.879 537.09 731.098 537.534 728.957 537.534 726.151 537.534 724.126 536.754 722.881 535.193 721.635 533.633 721.013 531.483 721.013 528.744ZM684.595 512.906 688.754 512.906 688.754 537.161 684.595 537.161ZM761.537 512.607 762.035 512.607 762.035 516.417 761.462 516.417C760.25 516.417 759.188 516.575 758.275 516.89 757.362 517.206 756.565 517.641 755.884 518.198 755.204 518.754 754.598 519.397 754.066 520.128L754.066 537.161 749.908 537.161 749.908 512.906 753.817 512.906 753.967 517.04C754.647 515.778 755.594 514.724 756.806 513.877 758.018 513.03 759.595 512.607 761.537 512.607ZM776.683 512.482C779.986 512.482 782.576 513.479 784.452 515.471 786.328 517.463 787.266 520.327 787.266 524.062 787.266 524.311 787.258 524.606 787.241 524.946 787.225 525.286 787.2 525.531 787.167 525.681L769.884 525.681C769.901 527.258 770.154 528.706 770.644 530.026 771.134 531.346 771.91 532.404 772.972 533.201 774.035 533.998 775.438 534.397 777.181 534.397 779.04 534.397 780.493 533.961 781.539 533.089 782.584 532.218 783.132 530.96 783.182 529.316L787.291 529.316C787.241 531.026 786.801 532.5 785.971 533.737 785.141 534.973 783.979 535.928 782.485 536.6 780.991 537.273 779.223 537.609 777.181 537.609 774.541 537.609 772.379 537.057 770.694 535.953 769.009 534.849 767.759 533.346 766.946 531.446 766.132 529.545 765.726 527.407 765.726 525.033 765.726 522.56 766.12 520.381 766.908 518.496 767.697 516.612 768.901 515.139 770.519 514.076 772.138 513.014 774.192 512.482 776.683 512.482ZM716.673 509.693 716.673 513.205C715.511 513.205 714.444 513.325 713.473 513.566 712.987 513.686 712.546 513.897 712.15 514.198L711.53 514.887 711.879 515.141C712.394 515.643 712.821 516.21 713.162 516.84 713.842 518.102 714.183 519.505 714.183 521.049 714.183 522.543 713.838 523.917 713.149 525.17 712.46 526.424 711.418 527.428 710.024 528.183 708.629 528.939 706.878 529.316 704.77 529.316 703.773 529.316 702.853 529.22 702.008 529.027L701.295 528.758 699.615 529.528C699.1 529.918 698.843 530.354 698.843 530.836 698.843 531.168 698.996 531.462 699.303 531.72 699.611 531.977 700.134 532.184 700.872 532.342 701.611 532.5 702.636 532.579 703.948 532.579L705.566 532.579C709.551 532.579 712.398 533.106 714.108 534.16 715.818 535.214 716.673 536.845 716.673 539.053 716.673 541.245 715.698 543.042 713.747 544.445 711.796 545.847 708.903 546.549 705.068 546.549 702.445 546.549 700.349 546.25 698.781 545.652 697.212 545.055 696.079 544.258 695.381 543.262 694.684 542.266 694.335 541.187 694.335 540.024 694.335 538.613 694.937 537.36 696.141 536.264L698.349 534.916 697.934 534.758C697.029 534.268 696.386 533.72 696.004 533.114 695.622 532.508 695.431 531.923 695.431 531.358 695.431 530.545 695.759 529.777 696.415 529.055 696.743 528.694 697.175 528.365 697.713 528.068L698.907 527.576 697.875 526.82C697.35 526.314 696.909 525.747 696.552 525.12 695.838 523.867 695.481 522.51 695.481 521.049 695.481 519.505 695.842 518.102 696.564 516.84 697.286 515.579 698.349 514.574 699.752 513.827 701.155 513.08 702.869 512.707 704.894 512.707 705.932 512.707 706.882 512.8 707.745 512.987L709.513 513.625 710.637 511.835C711.104 511.304 711.626 510.897 712.203 510.615 713.357 510.05 714.847 509.743 716.673 509.693ZM658.042 503.642 678.91 503.642 678.91 507.378 662.524 507.378 662.524 518.086 677.366 518.086 677.366 521.746 662.524 521.746 662.524 537.161 658.042 537.161ZM686.662 503.518C687.442 503.518 688.073 503.746 688.555 504.202 689.036 504.659 689.277 505.236 689.277 505.933 689.277 506.63 689.036 507.207 688.555 507.664 688.073 508.12 687.442 508.349 686.662 508.349 685.882 508.349 685.255 508.12 684.782 507.664 684.309 507.207 684.072 506.63 684.072 505.933 684.072 505.236 684.309 504.659 684.782 504.202 685.255 503.746 685.882 503.518 686.662 503.518Z" stroke="#156082" stroke-width="5" stroke-linecap="butt" stroke-linejoin="round" stroke-miterlimit="10" stroke-opacity="1" fill="none" fill-rule="evenodd"/><text fill="#000000" fill-opacity="0" font-family="Arial,Arial_MSFontService,sans-serif" font-size="43.0312" direction="ltr" writing-mode="lr-tb" x="658.042" y="541.17">Figure</text></g></g></svg>