<svg width="248" height="234" xmlns="http://www.w3.org/2000/svg" xmlns:xlink="http://www.w3.org/1999/xlink" xml:space="preserve" overflow="hidden"><defs><filter id="fx0" x="-10%" y="-10%" width="120%" height="120%" filterUnits="userSpaceOnUse" primitiveUnits="userSpaceOnUse"><feComponentTransfer color-interpolation-filters="sRGB"><feFuncR type="discrete" tableValues="0.847059 0.847059"/><feFuncG type="discrete" tableValues="0.431373 0.431373"/><feFuncB type="discrete" tableValues="0.800000 0.800000"/><feFuncA type="linear" slope="1.000000" intercept="0.000000"/></feComponentTransfer><feGaussianBlur stdDeviation="0.491677 0.491677"/></filter><filter id="fx1" x="-10%" y="-10%" width="120%" height="120%" filterUnits="userSpaceOnUse" primitiveUnits="userSpaceOnUse"><feComponentTransfer color-interpolation-filters="sRGB"><feFuncR type="discrete" tableValues="0.847059 0.847059"/><feFuncG type="discrete" tableValues="0.431373 0.431373"/><feFuncB type="discrete" tableValues="0.800000 0.800000"/><feFuncA type="linear" slope="1.000000" intercept="0.000000"/></feComponentTransfer><feGaussianBlur stdDeviation="0.491677 0.491677"/></filter><clipPath id="clip2"><rect x="1.61432" y="1.10648" width="102.961" height="40.3651"/></clipPath><clipPath id="clip3"><rect x="0.977112" y="1.54013" width="93.1061" height="39.4686"/></clipPath></defs><g transform="translate(-531 -233)"><g><path d="M537.5 351C537.5 289.973 590.107 240.5 655 240.5 719.893 240.5 772.5 289.973 772.5 351 772.5 412.028 719.893 461.5 655 461.5 590.107 461.5 537.5 412.028 537.5 351Z" stroke="#E97132" stroke-width="6.875" stroke-linecap="butt" stroke-linejoin="miter" stroke-miterlimit="8" stroke-opacity="1" fill="#FFFFFF" fill-rule="evenodd" fill-opacity="1"/><g clip-path="url(#clip2)" filter="url(#fx0)" transform="translate(603 301)"><g><g><path d="M47.2948 23.4555 47.2948 32.246 52.7734 32.246C53.8691 32.246 54.8652 32.1091 55.7616 31.8351 56.6581 31.5612 57.3678 31.0798 57.8908 30.3908 58.4137 29.7018 58.6752 28.7763 58.6752 27.6142 58.6752 26.1201 58.1191 25.0534 57.0068 24.4142 55.8944 23.7751 54.4833 23.4555 52.7734 23.4555ZM20.5657 11.4526 16.2078 24.8749 24.9236 24.8749ZM47.2948 10.1826 47.2948 18.1015 51.6528 18.1015C52.9975 18.1015 54.1264 17.7529 55.0395 17.0556 55.9526 16.3583 56.4091 15.3373 56.4091 13.9926 56.4091 13.0463 56.2016 12.2951 55.7865 11.739 55.3715 11.1828 54.807 10.7844 54.0932 10.5436 53.3793 10.3029 52.5658 10.1826 51.6528 10.1826ZM40.2973 4.52973 51.7524 4.52973C55.3715 4.52973 58.2353 5.21454 60.3437 6.58417 62.4521 7.9538 63.5063 10.058 63.5063 12.8969 63.5063 14.6733 63.0622 16.1799 62.174 17.4167 61.2858 18.6535 60.1029 19.5458 58.6254 20.0937 60.9496 20.5585 62.7218 21.5048 63.9421 22.9326 65.1623 24.3603 65.7724 26.1201 65.7724 28.2119 65.7724 30.4531 65.2619 32.3 64.2409 33.7526 63.2199 35.2053 61.7589 36.2844 59.8581 36.9899 57.9572 37.6955 55.6786 38.0483 53.0224 38.0483L40.2973 38.0483ZM16.905 4.52973 24.2512 4.52973 36.3289 38.0483 29.0325 38.0483 26.6418 30.6772 14.5393 30.6772 12.074 38.0483 4.8523 38.0483ZM86.5997 4.08148C89.2227 4.08148 91.6383 4.53388 93.8463 5.43866 96.0543 6.34345 97.8472 7.67987 99.2252 9.44794 100.603 11.216 101.358 13.395 101.491 15.9848L94.3194 15.9848C94.1368 14.6235 93.6927 13.4946 92.9871 12.5981 92.2816 11.7016 91.3809 11.0292 90.2852 10.581 89.1895 10.1328 87.961 9.90863 86.5997 9.90863 84.4083 9.90863 82.6444 10.4399 81.3079 11.5024 79.9715 12.5649 79.0003 13.9553 78.3944 15.6735 77.7884 17.3918 77.4854 19.2719 77.4854 21.3139 77.4854 23.3393 77.7884 25.2153 78.3944 26.9418 79.0003 28.6684 79.9715 30.0546 81.3079 31.1005 82.6444 32.1464 84.4083 32.6694 86.5997 32.6694 88.9073 32.6694 90.7293 32.0759 92.0658 30.8889 93.4022 29.7018 94.17 28.0126 94.3692 25.8212L101.541 25.8212C101.342 28.5605 100.62 30.8723 99.3746 32.7565 98.1295 34.6408 96.4278 36.0685 94.2696 37.0397 92.1114 38.0109 89.5548 38.4965 86.5997 38.4965 83.213 38.4965 80.2994 37.7868 77.859 36.3674 75.4185 34.9479 73.5426 32.9557 72.231 30.3908 70.9195 27.8259 70.2638 24.8002 70.2638 21.3139 70.2638 17.8276 70.9195 14.7936 72.231 12.2121 73.5426 9.63056 75.4185 7.63007 77.859 6.21063 80.2994 4.7912 83.213 4.08148 86.5997 4.08148Z" stroke="#FFFFFF" stroke-width="3" stroke-linecap="butt" stroke-linejoin="round" stroke-miterlimit="10" stroke-opacity="1" fill="#A02B93" fill-rule="evenodd" fill-opacity="1"/></g></g></g><path d="M647.586 321.747 647.586 330.537 653.065 330.537C654.16 330.537 655.156 330.4 656.053 330.126 656.949 329.853 657.659 329.371 658.182 328.682 658.705 327.993 658.967 327.068 658.967 325.906 658.967 324.411 658.41 323.345 657.298 322.706 656.186 322.066 654.775 321.747 653.065 321.747ZM620.857 309.744 616.499 323.166 625.215 323.166ZM647.586 308.474 647.586 316.393 651.944 316.393C653.289 316.393 654.418 316.044 655.331 315.347 656.244 314.65 656.7 313.629 656.7 312.284 656.7 311.338 656.493 310.586 656.078 310.03 655.663 309.474 655.098 309.076 654.385 308.835 653.671 308.594 652.857 308.474 651.944 308.474ZM640.589 302.821 652.044 302.821C655.663 302.821 658.527 303.506 660.635 304.875 662.743 306.245 663.798 308.349 663.798 311.188 663.798 312.965 663.354 314.471 662.465 315.708 661.577 316.945 660.394 317.837 658.917 318.385 661.241 318.85 663.013 319.796 664.233 321.224 665.454 322.652 666.064 324.411 666.064 326.503 666.064 328.744 665.553 330.591 664.532 332.044 663.511 333.497 662.05 334.576 660.149 335.281 658.249 335.987 655.97 336.34 653.314 336.34L640.589 336.34ZM617.196 302.821 624.543 302.821 636.62 336.34 629.324 336.34 626.933 328.969 614.831 328.969 612.365 336.34 605.144 336.34ZM686.891 302.373C689.514 302.373 691.93 302.825 694.138 303.73 696.346 304.635 698.139 305.971 699.516 307.739 700.894 309.507 701.65 311.686 701.783 314.276L694.611 314.276C694.428 312.915 693.984 311.786 693.278 310.889 692.573 309.993 691.672 309.321 690.577 308.872 689.481 308.424 688.252 308.2 686.891 308.2 684.7 308.2 682.936 308.731 681.599 309.794 680.263 310.856 679.292 312.247 678.686 313.965 678.08 315.683 677.777 317.563 677.777 319.605 677.777 321.631 678.08 323.507 678.686 325.233 679.292 326.96 680.263 328.346 681.599 329.392 682.936 330.438 684.7 330.961 686.891 330.961 689.199 330.961 691.021 330.367 692.357 329.18 693.693 327.993 694.461 326.304 694.661 324.113L701.832 324.113C701.633 326.852 700.911 329.164 699.666 331.048 698.421 332.932 696.719 334.36 694.561 335.331 692.403 336.302 689.846 336.788 686.891 336.788 683.504 336.788 680.591 336.078 678.15 334.659 675.71 333.239 673.834 331.247 672.522 328.682 671.211 326.117 670.555 323.092 670.555 319.605 670.555 316.119 671.211 313.085 672.522 310.503 673.834 307.922 675.71 305.921 678.15 304.502 680.591 303.083 683.504 302.373 686.891 302.373Z" stroke="#FFFFFF" stroke-width="3" stroke-linecap="butt" stroke-linejoin="round" stroke-miterlimit="10" stroke-opacity="1" fill="#A02B93" fill-rule="evenodd" fill-opacity="1"/><text fill="#000000" fill-opacity="0" font-family="Arial,Arial_MSFontService,sans-serif" font-size="34.415" direction="ltr" writing-mode="lr-tb" x="605.144" y="332.486">ABC</text><g clip-path="url(#clip3)" filter="url(#fx1)" transform="translate(609 363)"><g><g><path d="M66.8533 4.51514 89.9876 4.51514 89.9876 9.74463 74.0252 32.2065 91.1082 32.2065 91.1082 38.0337 65.5833 38.0337 65.5833 32.5054 81.2718 10.3423 66.8533 10.3423ZM34.5963 4.51514 42.3659 4.51514 49.5377 19.083 56.7096 4.51514 64.4791 4.51514 53.1237 25.5078 53.1237 38.0337 45.9518 38.0337 45.9518 25.5078ZM5.25275 4.51514 13.346 4.51514 19.4969 15.4722 25.9715 4.51514 33.741 4.51514 23.4315 20.5522 34.6624 38.0337 26.3201 38.0337 19.4969 26.2051 12.2254 38.0337 4.35626 38.0337 15.637 20.5273Z" stroke="#FFFFFF" stroke-width="3" stroke-linecap="butt" stroke-linejoin="round" stroke-miterlimit="10" stroke-opacity="1" fill="#A02B93" fill-rule="evenodd" fill-opacity="1"/></g></g></g><path d="M673.145 364.806 696.279 364.806 696.279 370.036 680.317 392.498 697.4 392.498 697.4 398.325 671.875 398.325 671.875 392.797 687.563 370.634 673.145 370.634ZM640.888 364.806 648.657 364.806 655.829 379.374 663.001 364.806 670.77 364.806 659.415 385.799 659.415 398.325 652.243 398.325 652.243 385.799ZM611.544 364.806 619.637 364.806 625.788 375.763 632.263 364.806 640.032 364.806 629.723 380.844 640.954 398.325 632.611 398.325 625.788 386.496 618.517 398.325 610.648 398.325 621.928 380.819Z" stroke="#FFFFFF" stroke-width="3" stroke-linecap="butt" stroke-linejoin="round" stroke-miterlimit="10" stroke-opacity="1" fill="#A02B93" fill-rule="evenodd" fill-opacity="1"/><text fill="#000000" fill-opacity="0" font-family="Arial,Arial_MSFontService,sans-serif" font-size="33.5186" direction="ltr" writing-mode="lr-tb" x="610.648" y="394.135">XYZ</text></g></g></svg>