<svg width="532" height="1036" xmlns="http://www.w3.org/2000/svg" xmlns:xlink="http://www.w3.org/1999/xlink" xml:space="preserve" overflow="hidden"><g transform="translate(-765 -334)"><g><path d="M773 431.002C773 383.505 811.505 345 859.002 345L1203 345C1250.5 345 1289 383.505 1289 431.002L1289 1275C1289 1322.5 1250.5 1361 1203 1361L859.002 1361C811.505 1361 773 1322.5 773 1275Z" stroke="#156082" stroke-width="13.75" stroke-linecap="butt" stroke-linejoin="round" stroke-miterlimit="10" stroke-opacity="1" fill="none" fill-rule="evenodd"/><text fill="#3B3B3B" fill-opacity="1" font-family="IPAMincho,IPAMincho_MSFontService,sans-serif" font-style="normal" font-variant="normal" font-weight="700" font-stretch="normal" font-size="83" text-anchor="start" direction="ltr" writing-mode="tb-rl" unicode-bidi="normal" text-decoration="none" transform="matrix(1 2.95822e-25 -2.95822e-25 1 1154.24 387)" x="27.2952" y="15.0356">色は匂へど散りぬるを</text><text fill="#3B3B3B" fill-opacity="1" font-family="IPAMincho,IPAMincho_MSFontService,sans-serif" font-style="normal" font-variant="normal" font-weight="700" font-stretch="normal" font-size="83" text-anchor="start" direction="ltr" writing-mode="tb-rl" unicode-bidi="normal" text-decoration="none" transform="matrix(1 2.95822e-25 -2.95822e-25 1 1055.24 387)" x="27.2952" y="15.0356">我が世誰ぞ常ならむ</text><text fill="#3B3B3B" fill-opacity="1" font-family="IPAMincho,IPAMincho_MSFontService,sans-serif" font-style="normal" font-variant="normal" font-weight="700" font-stretch="normal" font-size="83" text-anchor="start" direction="ltr" writing-mode="tb-rl" unicode-bidi="normal" text-decoration="none" transform="matrix(1 2.95822e-25 -2.95822e-25 1 956.244 387)" x="27.2952" y="15.0356">有為の奥山今日越えて</text><text fill="#3B3B3B" fill-opacity="1" font-family="IPAMincho,IPAMincho_MSFontService,sans-serif" font-style="normal" font-variant="normal" font-weight="700" font-stretch="normal" font-size="83" text-anchor="start" direction="ltr" writing-mode="tb-rl" unicode-bidi="normal" text-decoration="none" transform="matrix(1 2.95822e-25 -2.95822e-25 1 857.244 387)" x="27.2952" y="15.0356">浅き夢見し酔ひもせず。</text></g></g></svg>